<?xml version="1.0" standalone="no"?>
<!DOCTYPE svg PUBLIC "-//W3C//DTD SVG 20010904//EN"
 "http://www.w3.org/TR/2001/REC-SVG-20010904/DTD/svg10.dtd">
<svg version="1.0" xmlns="http://www.w3.org/2000/svg"
 width="16.000000pt" height="16.000000pt" viewBox="0 0 16.000000 16.000000"
 preserveAspectRatio="xMidYMid meet">
<metadata>
Created by potrace 1.11, written by Peter Selinger 2001-2013
</metadata>
<g transform="translate(0.000000,16.000000) scale(0.022857,-0.022857)"
fill="#000000" stroke="none">
<path d="M190 673 c-14 -2 -44 -11 -67 -19 -37 -14 -46 -23 -72 -77 -16 -34
-31 -71 -33 -82 -5 -31 18 -23 44 15 29 43 61 60 116 60 l42 0 0 -37 c-1 -66
-27 -191 -53 -245 -13 -29 -43 -82 -66 -117 -45 -71 -46 -91 -5 -128 34 -31
70 -29 104 5 34 35 55 123 70 297 5 66 13 144 16 173 l5 52 71 0 71 0 -6 -72
c-32 -357 -31 -350 -10 -399 38 -86 140 -104 209 -38 32 31 64 102 64 141 0
30 -27 20 -36 -14 -18 -63 -100 -74 -129 -17 -18 34 -19 103 -4 272 l12 127
79 0 78 0 0 55 0 55 -237 -1 c-131 -1 -249 -4 -263 -6z"/>
</g>
</svg>
